<svg width="10" height="8" viewBox="0 0 10 8" fill="none" xmlns="http://www.w3.org/2000/svg">
    <path d="M9.65959 0.673677C9.59503 0.608588 9.51823 0.556925 9.4336 0.521669C9.34898 0.486413 9.25821 0.468262 9.16654 0.468262C9.07486 0.468262 8.98409 0.486413 8.89947 0.521669C8.81484 0.556925 8.73804 0.608588 8.67348 0.673677L3.49987 5.85423L1.32626 3.67368C1.25923 3.60893 1.1801 3.55802 1.0934 3.52385C1.00669 3.48968 0.914108 3.47292 0.820927 3.47453C0.727746 3.47614 0.635795 3.49609 0.550324 3.53324C0.464853 3.57039 0.387536 3.62401 0.322787 3.69104C0.258038 3.75807 0.207125 3.83719 0.172956 3.9239C0.138786 4.0106 0.122029 4.10319 0.123641 4.19637C0.125253 4.28955 0.145203 4.3815 0.182352 4.46697C0.2195 4.55244 0.273119 4.62976 0.340148 4.69451L3.00681 7.36118C3.07137 7.42627 3.14818 7.47793 3.2328 7.51318C3.31743 7.54844 3.4082 7.56659 3.49987 7.56659C3.59154 7.56659 3.68231 7.54844 3.76694 7.51318C3.85156 7.47793 3.92837 7.42627 3.99293 7.36118L9.65959 1.69451C9.73008 1.62948 9.78634 1.55056 9.82481 1.46271C9.86329 1.37486 9.88316 1.28 9.88316 1.18409C9.88316 1.08819 9.86329 0.993325 9.82481 0.905478C9.78634 0.817631 9.73008 0.738707 9.65959 0.673677Z" fill="white"/>
</svg>
