<svg width="30" height="30" viewBox="0 0 30 30" xmlns="http://www.w3.org/2000/svg">
    <path d="M11.5 6C10.5729 6.00369 9.68478 6.37362 9.0292 7.0292C8.37362 7.68478 8.00369 8.57288 8 9.5C8 11.422 9.578 13 11.5 13C13.422 13 15 11.422 15 9.5C15 7.578 13.422 6 11.5 6ZM20.5 6C19.5729 6.00369 18.6848 6.37362 18.0292 7.0292C17.3736 7.68478 17.0037 8.57288 17 9.5C17 11.422 18.578 13 20.5 13C22.422 13 24 11.422 24 9.5C24 7.578 22.422 6 20.5 6ZM11.5 8C12.34 8 13 8.66 13 9.5C13 10.34 12.34 11 11.5 11C10.66 11 10 10.34 10 9.5C10 8.66 10.66 8 11.5 8ZM20.5 8C21.34 8 22 8.66 22 9.5C22 10.34 21.34 11 20.5 11C19.66 11 19 10.34 19 9.5C19 8.66 19.66 8 20.5 8ZM7 12C4.8 12 3 13.8 3 16C3 17.113 3.477 18.117 4.219 18.844C3.53832 19.3033 2.98029 19.9221 2.59353 20.6465C2.20677 21.3709 2.00301 22.1788 2 23H4C4 21.332 5.332 20 7 20C8.668 20 10 21.332 10 23H12C11.997 22.1788 11.7932 21.3709 11.4065 20.6465C11.0197 19.9221 10.4617 19.3033 9.781 18.844C10.523 18.117 11 17.114 11 16C11 13.8 9.2 12 7 12ZM12 23C11.375 23.836 11 24.887 11 26H13C13 24.332 14.332 23 16 23C17.668 23 19 24.332 19 26H21C20.9983 24.9184 20.6476 23.8663 20 23C19.66 22.547 19.25 22.16 18.781 21.844C19.523 21.117 20 20.114 20 19C20 16.8 18.2 15 16 15C13.8 15 12 16.8 12 19C12 20.113 12.477 21.117 13.219 21.844C12.7509 22.1585 12.3388 22.5492 12 23ZM20 23H22C22 21.332 23.332 20 25 20C26.668 20 28 21.332 28 23H30C29.997 22.1788 29.7932 21.3709 29.4065 20.6465C29.0197 19.9221 28.4617 19.3033 27.781 18.844C28.523 18.117 29 17.114 29 16C29 13.8 27.2 12 25 12C22.8 12 21 13.8 21 16C21 17.113 21.477 18.117 22.219 18.844C21.5383 19.3033 20.9803 19.9221 20.5935 20.6465C20.2068 21.3709 20.003 22.1788 20 23ZM7 14C8.117 14 9 14.883 9 16C9 17.117 8.117 18 7 18C5.883 18 5 17.117 5 16C5 14.883 5.883 14 7 14ZM25 14C26.117 14 27 14.883 27 16C27 17.117 26.117 18 25 18C23.883 18 23 17.117 23 16C23 14.883 23.883 14 25 14ZM16 17C17.117 17 18 17.883 18 19C18 20.117 17.117 21 16 21C14.883 21 14 20.117 14 19C14 17.883 14.883 17 16 17Z" fill="#1F2532"/>
</svg>
