<svg width="14" height="14" viewBox="0 0 14 14" fill="none" xmlns="http://www.w3.org/2000/svg">
    <path d="M9.74531 7.50312C10.4781 6.77031 10.8828 5.79414 10.8828 4.75781C10.8828 3.72012 10.4795 2.74531 9.74531 2.0125C9.0125 1.27969 8.03633 0.875 7 0.875C5.96367 0.875 4.9875 1.27832 4.25469 2.0125C3.52188 2.74668 3.11719 3.72012 3.11719 4.75781C3.11719 5.63008 3.40293 6.45859 3.9293 7.13535C4.0291 7.26387 4.13711 7.38555 4.25332 7.50312C4.36953 7.61934 4.49258 7.72734 4.61973 7.82715C5.16113 8.24824 5.79961 8.51621 6.48047 8.60645V10.0625H4.92188C4.86172 10.0625 4.8125 10.1117 4.8125 10.1719V10.9922C4.8125 11.0523 4.86172 11.1016 4.92188 11.1016H6.48047V13.0156C6.48047 13.0758 6.52969 13.125 6.58984 13.125H7.41016C7.47031 13.125 7.51953 13.0758 7.51953 13.0156V11.1016H9.07812C9.13828 11.1016 9.1875 11.0523 9.1875 10.9922V10.1719C9.1875 10.1117 9.13828 10.0625 9.07812 10.0625H7.51953V8.60645C8.36035 8.49434 9.13555 8.11289 9.74531 7.50312ZM7 7.60156C6.23984 7.60156 5.52754 7.30625 4.98887 6.76895C4.45156 6.23164 4.15625 5.51797 4.15625 4.75781C4.15625 3.99766 4.45156 3.28535 4.98887 2.74668C5.52617 2.20801 6.23984 1.91406 7 1.91406C7.76016 1.91406 8.47246 2.20937 9.01113 2.74668C9.54844 3.28398 9.84375 3.99766 9.84375 4.75781C9.84375 5.51797 9.54844 6.23027 9.01113 6.76895C8.47246 7.30625 7.76016 7.60156 7 7.60156Z" fill="#EA3EC4"/>
</svg>
