<svg width="14" height="14" viewBox="0 0 14 14" fill="none" xmlns="http://www.w3.org/2000/svg">
    <path d="M11.9492 1.64062H8.50391C8.45879 1.64062 8.42188 1.67754 8.42188 1.72266V2.48828C8.42188 2.5334 8.45879 2.57031 8.50391 2.57031H10.6969L7.97207 5.29512C7.28848 4.76875 6.45449 4.48438 5.57812 4.48438C4.52676 4.48438 3.53691 4.89453 2.79453 5.63828C2.05215 6.38203 1.64062 7.37051 1.64062 8.42188C1.64062 9.47324 2.05078 10.4631 2.79453 11.2055C3.53691 11.9492 4.52676 12.3594 5.57812 12.3594C6.62949 12.3594 7.61934 11.9492 8.36172 11.2055C9.10547 10.4631 9.51562 9.47324 9.51562 8.42188C9.51562 7.54551 9.23125 6.71426 8.70625 6.03066L11.4297 3.30723V5.49609C11.4297 5.54121 11.4666 5.57812 11.5117 5.57812H12.2773C12.3225 5.57812 12.3594 5.54121 12.3594 5.49609V2.05078C12.3594 1.8252 12.1748 1.64062 11.9492 1.64062ZM5.57812 11.3203C3.97988 11.3203 2.67969 10.0201 2.67969 8.42188C2.67969 6.82363 3.97988 5.52344 5.57812 5.52344C7.17637 5.52344 8.47656 6.82363 8.47656 8.42188C8.47656 10.0201 7.17637 11.3203 5.57812 11.3203Z" fill="#2B5CDB"/>
</svg>
