<svg width="24" height="24" viewBox="0 0 24 24" fill="none" xmlns="http://www.w3.org/2000/svg">
<path d="M12 0.75C7.08751 0.75 2.92501 3.9 1.38751 8.25H22.6125C21.075 3.9 16.9125 0.75 12 0.75Z" fill="#EFF0F2"/>
<path d="M12 23.25C16.9125 23.25 21.075 20.1375 22.6125 15.75H1.38751C2.92501 20.1375 7.08751 23.25 12 23.25Z" fill="#ED4C5C"/>
<path d="M1.3875 8.25C0.975 9.4125 0.75 10.6875 0.75 12C0.75 13.3125 0.975 14.5875 1.3875 15.75H22.6125C23.025 14.5875 23.25 13.3125 23.25 12C23.25 10.6875 23.025 9.4125 22.6125 8.25H1.3875Z" fill="#428BC1"/>
<path d="M12.7125 7.125H5.25V12.3C5.25 15.75 8.85 16.8 9 16.875C9.15 16.8 12.75 15.75 12.75 12.3V7.125H12.7125Z" fill="#EFF0F2"/>
<path d="M6 7.875V12.3375C6 14.4375 7.6125 15.5625 9 16.125C10.3875 15.5625 12 14.4375 12 12.3375V7.875H6Z" fill="#ED4C5C"/>
<path d="M8.625 8.625H9.375V13.875H8.625V8.625Z" fill="#EFF0F2"/>
<path d="M7.125 10.875H10.875V11.625H7.125V10.875Z" fill="#EFF0F2"/>
<path d="M7.875 9.375H10.125V10.125H7.875V9.375Z" fill="#EFF0F2"/>
<path d="M8.99996 13.125C8.51246 13.125 8.06246 13.35 7.79996 13.725C7.61246 13.575 7.38746 13.5 7.12496 13.5C6.82496 13.5 6.52496 13.6125 6.33746 13.8375C6.86246 15 7.98746 15.7125 8.99996 16.125C10.0125 15.7125 11.1375 15 11.6625 13.8375C11.475 13.6125 11.175 13.5 10.875 13.5C10.6125 13.5 10.3875 13.575 10.2 13.725C9.93746 13.35 9.48746 13.125 8.99996 13.125Z" fill="#428BC1"/>
</svg>
